<svg xmlns="http://www.w3.org/2000/svg" xmlns:xlink="http://www.w3.org/1999/xlink" fill="none" version="1.1" width="64" height="64" viewBox="0 0 64 64"><defs><clipPath id="master_svg0_3_847"><rect x="0" y="0" width="64" height="64" rx="0"/></clipPath><filter id="master_svg1_3_0528" filterUnits="objectBoundingBox" color-interpolation-filters="sRGB" x="0" y="0" width="23" height="23"><feFlood flood-opacity="0" result="BackgroundImageFix"/><feBlend mode="normal" in="SourceGraphic" in2="BackgroundImageFix" result="shape"/><feColorMatrix in="SourceAlpha" type="matrix" result="hardAlpha" values="0 0 0 0 0 0 0 0 0 0 0 0 0 0 0 0 0 0 127 0"/><feOffset dy="2" dx="0"/><feGaussianBlur stdDeviation="3"/><feComposite in2="hardAlpha" operator="arithmetic" k2="-1" k3="1"/><feColorMatrix type="matrix" values="0 0 0 0 1 0 0 0 0 0.9405531287193298 0 0 0 0 0.8230999708175659 0 0 0 1 0"/><feBlend mode="normal" in2="shape" result="effect1_innerShadow"/></filter><filter id="master_svg2_3_0092" filterUnits="objectBoundingBox" color-interpolation-filters="sRGB" x="0" y="0" width="55" height="36"><feFlood flood-opacity="0" result="BackgroundImageFix"/><feBlend mode="normal" in="SourceGraphic" in2="BackgroundImageFix" result="shape"/><feColorMatrix in="SourceAlpha" type="matrix" result="hardAlpha" values="0 0 0 0 0 0 0 0 0 0 0 0 0 0 0 0 0 0 127 0"/><feOffset dy="6" dx="0"/><feGaussianBlur stdDeviation="5"/><feComposite in2="hardAlpha" operator="arithmetic" k2="-1" k3="1"/><feColorMatrix type="matrix" values="0 0 0 0 1 0 0 0 0 1 0 0 0 0 1 0 0 0 0.6000000238418579 0"/><feBlend mode="normal" in2="shape" result="effect1_innerShadow"/><feGaussianBlur in="BackgroundImage" stdDeviation="3.5"/><feComposite in2="SourceAlpha" operator="in" result="effect2_foregroundBlur"/><feBlend mode="normal" in="SourceGraphic" in2="effect2_foregroundBlur" result="shape"/></filter></defs><g style="mix-blend-mode:passthrough" clip-path="url(#master_svg0_3_847)"><g style="mix-blend-mode:passthrough" filter="url(#master_svg1_3_0528)"><ellipse cx="40.5" cy="23.5" rx="11.5" ry="11.5" fill="#FFAA00" fill-opacity="1"/></g><g style="mix-blend-mode:passthrough" filter="url(#master_svg2_3_0092)"><path d="M39.0482,26.84795Q38.7676,26.29568,38.4498,25.76401Q38.132,25.232329999999997,37.7783,24.72376Q37.4247,24.21519,37.0369,23.732129999999998Q36.6492,23.24907,36.2291,22.79382Q35.809,22.33856,35.3587,21.91326Q34.9083,21.487949999999998,34.4298,21.09462Q33.9513,20.70128,33.446799999999996,20.34177Q32.9424,19.98226,32.4144,19.65828Q31.8865,19.3343,31.3375,19.04738Q30.7885,18.76046,30.2211,18.51195Q29.6537,18.26345,29.0705,18.05454Q28.4874,17.845637,27.8913,17.677313Q27.2951,17.508988,26.6888,17.382043Q26.0826,17.255098,25.469,17.170132Q24.8554,17.0851668,24.2374,17.0425834Q23.6194,17,23,17Q22.5581,17,22.1168,17.0216818Q21.6754,17.0433636,21.2357,17.0866749Q20.7959,17.129986,20.3589,17.194823Q19.921799999999998,17.259659,19.4884,17.345865Q19.055,17.43207,18.6264,17.539437Q18.197699999999998,17.646804,17.774900000000002,17.775074Q17.352,17.903343,16.936,18.05221Q16.5199,18.20107,16.1117,18.37017Q15.7035,18.53927,15.304,18.72819Q14.90456,18.91712,14.51486,19.12542Q14.12516,19.33372,13.74615,19.56088Q13.36714,19.78805,12.99973,20.033549999999998Q12.63233,20.279040000000002,12.27741,20.54226Q11.92249,20.80549,11.580919999999999,21.085810000000002Q11.23935,21.36613,10.911940000000001,21.66288Q10.58453,21.95962,10.272079999999999,22.27208Q9.959620000000001,22.58453,9.662880000000001,22.91194Q9.36613,23.23935,9.08581,23.58092Q8.805489999999999,23.92249,8.54226,24.27741Q8.27904,24.63233,8.03355,24.99973Q7.78805,25.36714,7.56088,25.74615Q7.33372,26.12516,7.12542,26.51486Q6.91712,26.90456,6.72819,27.304000000000002Q6.53927,27.7035,6.37017,28.1117Q6.20107,28.5199,6.0522100000000005,28.936Q5.903343,29.352,5.775074,29.774900000000002Q5.646804,30.197699999999998,5.539437,30.6264Q5.43207,31.055,5.345865,31.4884Q5.259659,31.921799999999998,5.194823,32.3589Q5.129986,32.7959,5.0866749,33.2357Q5.0433636,33.675399999999996,5.0216818,34.1168Q5,34.558099999999996,5,35Q5,35.441900000000004,5.0216818,35.8832Q5.0433636,36.324600000000004,5.0866749,36.7643Q5.129986,37.2041,5.194823,37.6411Q5.259659,38.078199999999995,5.345865,38.5116Q5.43207,38.945,5.539437,39.373599999999996Q5.646804,39.8023,5.775074,40.2251Q5.903343,40.647999999999996,6.0522100000000005,41.064Q6.20107,41.4801,6.37017,41.8883Q6.53927,42.2965,6.72819,42.696Q6.91712,43.0954,7.12542,43.4851Q7.33372,43.8748,7.56088,44.2538Q7.78805,44.6329,8.03355,45.000299999999996Q8.27904,45.3677,8.54226,45.7226Q8.805489999999999,46.0775,9.08581,46.4191Q9.36613,46.7606,9.662880000000001,47.0881Q9.959620000000001,47.4155,10.272079999999999,47.727900000000005Q10.58453,48.040400000000005,10.911940000000001,48.3371Q11.23935,48.6339,11.580919999999999,48.9142Q11.92249,49.1945,12.27741,49.4577Q12.63233,49.721,12.99973,49.9664Q13.36714,50.2119,13.74615,50.4391Q14.12516,50.6663,14.51486,50.8746Q14.90456,51.0829,15.304,51.2718Q15.7035,51.4607,16.1117,51.6298Q16.5199,51.7989,16.936,51.9478Q17.352,52.0967,17.774900000000002,52.2249Q18.197699999999998,52.3532,18.6264,52.4606Q19.055,52.5679,19.4884,52.6541Q19.921799999999998,52.7403,20.3589,52.8052Q20.7959,52.87,21.2357,52.9133Q21.6754,52.9566,22.1168,52.9783Q22.5581,53,23,53L46,53Q46.3437,53,46.6869,52.9831Q47.0302,52.9663,47.3722,52.9326Q47.7143,52.8989,48.0542,52.8485Q48.3942,52.798,48.7313,52.731Q49.0683,52.6639,49.4017,52.5804Q49.7351,52.4969,50.064,52.3972Q50.3929,52.2974,50.7164,52.1816Q51.04,52.0658,51.3576,51.9343Q51.6751,51.8028,51.9858,51.6558Q52.2965,51.5089,52.5996,51.3469Q52.9027,51.1849,53.1974,51.0082Q53.4922,50.8315,53.778,50.6406Q54.0637,50.4496,54.3398,50.2449Q54.6158,50.0402,54.8815,49.8221Q55.1472,49.6041,55.4018,49.3733Q55.6565,49.1425,55.8995,48.8995Q56.1425,48.6565,56.3733,48.4018Q56.6041,48.1472,56.8221,47.8815Q57.0402,47.6158,57.2449,47.3398Q57.4496,47.0637,57.6406,46.778Q57.8315,46.4922,58.0082,46.1974Q58.1849,45.9026,58.3469,45.5995Q58.5089,45.2964,58.6558,44.9858Q58.8028,44.6751,58.9343,44.357600000000005Q59.0658,44.04,59.1816,43.716499999999996Q59.2974,43.3929,59.3972,43.064Q59.4969,42.7351,59.5804,42.401700000000005Q59.6639,42.0683,59.731,41.731300000000005Q59.798,41.3942,59.8485,41.0542Q59.8989,40.7143,59.9326,40.3722Q59.9663,40.0302,59.9831,39.6869Q60,39.3437,60,39Q60,38.6563,59.9831,38.3131Q59.9663,37.9698,59.9326,37.6278Q59.8989,37.2857,59.8485,36.9458Q59.798,36.6058,59.731,36.268699999999995Q59.6639,35.9317,59.5804,35.598299999999995Q59.4969,35.2649,59.3972,34.936Q59.2974,34.6071,59.1816,34.283500000000004Q59.0658,33.959900000000005,58.9343,33.642399999999995Q58.8028,33.3249,58.6558,33.0142Q58.5089,32.7035,58.3469,32.4004Q58.1849,32.097300000000004,58.0082,31.802599999999998Q57.8315,31.5078,57.6406,31.222Q57.4496,30.9363,57.2449,30.6602Q57.0402,30.3842,56.8221,30.118499999999997Q56.6041,29.852800000000002,56.3733,29.5982Q56.1425,29.3435,55.8995,29.1005Q55.6565,28.8575,55.4018,28.6267Q55.1472,28.395899999999997,54.8815,28.1779Q54.6158,27.9598,54.3398,27.7551Q54.0637,27.5504,53.778,27.3594Q53.4922,27.1685,53.1974,26.991799999999998Q52.9026,26.81511,52.5995,26.653100000000002Q52.2964,26.49109,51.9858,26.34415Q51.6751,26.19721,51.3576,26.06569Q51.04,25.93416,50.7164,25.818379999999998Q50.3929,25.7026,50.064,25.60283Q49.7351,25.50307,49.4017,25.41956Q49.0683,25.33605,48.7313,25.26901Q48.3942,25.20196,48.0542,25.15153Q47.7143,25.101100000000002,47.3722,25.067410000000002Q47.0302,25.03373,46.6869,25.01686Q46.3437,25,46,25Q45.0894,25,44.1864,25.11797Q43.2835,25.23593,42.4034,25.46987Q41.5233,25.70382,40.681,26.049799999999998Q39.8386,26.39577,39.0482,26.84795Z" fill-rule="evenodd" fill="#FFFFFF" fill-opacity="0.5"/></g></g></svg>